<svg enable-background="new 0 0 28 28" viewBox="0 0 28 28" xmlns="http://www.w3.org/2000/svg"><circle cx="13.7" cy="12.9" fill="#b5ddff" r="12.8"/><circle cx="13.7" cy="12.9" fill="#66a6cc" r="8.3"/><circle cx="13.7" cy="12.9" fill="#b5ddff" r="5.1"/><path d="m13.7 15.4c-1.4 0-2.5-1.1-2.5-2.5s1.1-2.5 2.5-2.5 2.5 1.1 2.5 2.5c0 1.3-1.2 2.5-2.5 2.5zm0-4.5c-1.1 0-1.9.9-1.9 1.9s.9 1.9 1.9 1.9 1.9-.9 1.9-1.9c0-1-.9-1.9-1.9-1.9z" fill="#003a70"/><path d="m19.7 2.2s0 .1 0 0l-.6.1v.5c0 .1 0 .1-.1.1-.1 0-.1 0-.1-.1v-.5h-.5c-.1 0-.1 0-.1-.1 0 0 0-.1.1-.1h.6v-.5c0-.1 0-.1.1-.1s.1 0 .1.1v.5l.5.1c0-.1 0 0 0 0z" fill="#003a70"/><path d="m7.4 9.8c0 .1-.1.1 0 0l-.6.1v.5s0 .1-.1.1c-.1 0-.1 0-.1-.1v-.5h-.5c-.1 0-.1 0-.1-.1 0 0 0-.1.1-.1h.5v-.5c0-.1 0-.1.1-.1 0 0 .1 0 .1.1v.5h.5s.1.1.1.1z" fill="#003a70"/><path d="m22.3 22s0 .1 0 0l-.6.1v.5c0 .1 0 .1-.1.1s-.1 0-.1-.1v-.6h-.5s-.1 0-.1-.1c0-.1 0-.1.1-.1h.5v-.5c0-.1 0-.1.1-.1 0 0 .1 0 .1.1v.5h.5.1c.1.1.1.2 0 .2z" fill="#003a70"/><path d="m10.6 3.3c-.3 0-.6-.3-.6-.6s.3-.6.6-.6.6.3.6.6c0 .3-.3.6-.6.6zm0-1c-.2 0-.4.2-.4.4s.2.4.4.4.4-.1.4-.4c0-.2-.2-.4-.4-.4z" fill="#003a70"/><path d="m3.8 14.7c-.3 0-.6-.3-.6-.6s.3-.6.6-.6.6.3.6.6c0 .4-.3.6-.6.6zm0-1c-.2 0-.4.2-.4.4s.2.4.4.4.4-.2.4-.4c0-.2-.2-.4-.4-.4z" fill="#9ce5e5"/><path d="m22.3 14.7c-.3 0-.6-.3-.6-.6s.3-.6.6-.6.6.3.6.6c0 .4-.3.6-.6.6zm0-1c-.2 0-.4.2-.4.4s.2.4.4.4c.2 0 .4-.2.4-.4s-.2-.4-.4-.4z" fill="#003a70"/><g fill="#9ce5e5"><path d="m24.3 9-.1-.3s0-.1.1-.1c0 0 .1 0 .1.1l-.1.3c.1 0 .1 0 0 0z"/><path d="m24.1 9.1-.3-.1v-.1h.1l.3.1c0 .1 0 .1-.1.1.1.1.1.1 0 0z"/><path d="m23.9 9.5c-.1 0-.1-.1-.1-.1l.3-.1h.1v.1z"/><path d="m24.3 9.8-.1-.4s0-.1.1-.1c0 0 .1 0 .1.1l-.1.4c.1 0 .1 0 0 0z"/><path d="m24.8 9.5-.3-.1v-.1h.1l.3.1v.1c0 .1-.1.1-.1 0z"/><path d="m24.5 9.1c0 .1 0 .1 0 0-.1 0-.1-.1-.1-.1l.3-.1h.1v.1z"/></g><path d="m10.8 22.1c-.1-.1-.1-.1 0 0l-.1-.4s0-.1.1-.1.1 0 .1.1l-.1.4c.1-.1.1 0 0 0z" fill="#003a70"/><path d="m10.6 22.2-.3-.2v-.1h.1l.3.1c0 .1 0 .1-.1.2z" fill="#003a70"/><path d="m10.4 22.6c-.1-.1-.1-.1 0 0-.1-.1-.1-.1-.1-.1l.3-.1h.1v.1z" fill="#003a70"/><path d="m10.8 22.8c-.1 0-.1-.1 0 0l-.1-.4s0-.1.1-.1.1 0 .1.1l-.1.4c.1 0 .1 0 0 0z" fill="#003a70"/><path d="m11.3 22.6-.3-.2v-.1h.1l.3.1c0 .1 0 .1-.1.2z" fill="#e900cf"/><path d="m13.7 26.3h-.1l-3.1-1.9c-.1-.1-.2-.3-.1-.4s.3-.2.4-.1l3 1.8 3-1.8c.1 0 .2 0 .3.1s0 .3-.1.4l-3.1 1.9c-.1 0-.2 0-.2 0z" fill="#003a70"/><path d="m13.7 22.8c-.1 0-.1 0-.2-.1l-2.1-1.4c-.1-.1-.2-.3-.1-.4s.3-.2.4-.1l1.9 1.3 1.9-1.3c.1-.1.3-.1.4.1.1.1.1.3-.1.4l-2.1 1.4c.1.1 0 .1 0 .1z" fill="#003a70"/><path d="m13.7 19.4c-.1 0-.1 0-.2-.1l-1.1-1c-.1-.1-.1-.3 0-.4s.3-.1.4 0l.9.8.9-.8c.1-.1.3-.1.4 0s.1.3 0 .4l-1.1 1c-.1.1-.2.1-.2.1z" fill="#003a70"/><path d="m17.3 26c-.1 0-.2-.1-.3-.2l-3.4-10-3.4 10.1c0 .1-.2.2-.4.2-.1 0-.2-.2-.2-.4l3.7-10.9c0-.1.2-.2.3-.2s.2.1.2.2l3.7 10.9c.1.1.1.3-.2.3.1 0 .1 0 0 0z" fill="#003a70"/><path d="m13.7 28c-.2 0-.3-.1-.3-.3v-14.4c0-.2.1-.3.3-.3s.3.1.3.3v14.4c0 .2-.2.3-.3.3z" fill="#003a70"/><circle cx="13.7" cy="12.9" fill="#66a6cc" r=".6"/></svg>