<svg enable-background="new 0 0 27.3 22.6" viewBox="0 0 27.3 22.6" xmlns="http://www.w3.org/2000/svg"><path d="m27.2 16.9c.1 0 .1 0 .1.1l-.1.1h-.7c-.1 0-.1 0-.1-.1l.1-.1z" fill="#252258"/><path d="m26.2 17c0 .1 0 .1-.1.2h-.1l-.6.3c-.2.1-.5.1-.7 0l-.5-.2c-.2-.1-.3-.1-.5 0l-.4.2c-.2.1-.5.1-.7 0l-.5-.2c-.2-.1-.3-.1-.5 0l-.5.2c-.2.1-.5.1-.7 0l-.5-.2c-.2-.1-.3-.1-.5 0l-.5.2c-.2.1-.5.1-.7 0l-.4-.2c-.2-.1-.3-.1-.5 0l-.4.2c-.1 0-.2.1-.3.1v-.3h.2l.5-.2c.2-.1.5-.1.7 0l.5.2c.2.1.3.1.5 0l.5-.2c.2-.1.5-.1.7 0l.5.2c.2.1.3.1.5 0l.5-.2c.2-.1.5-.1.7 0h.1l.5-.7-3.8-2.6-2.8 3.5-.2-.1 1.3-1.8c-.5-.3-.8-1-.5-1.5.2-.4.6-.6 1-.6.3 0 .6.1.8.4l.6-.8.1-.2 2.1-2.8 4.2 2.9-3.2 4.4h.1c.2.1.3.1.5 0l.4-.2c.2-.1.5-.1.7 0l.4.2c.2.1.3.1.5 0l.6-.3c.1 0 .1 0 .2-.1.1.1.2.1.2.2zm-1.8-2.8.9-1.3-3.7-2.6-1 1.3zm-1.4 1.9 1.3-1.7-3.8-2.6-1.3 1.7zm-5.4-.9.9-1.2c-.2-.2-.4-.3-.7-.3-.4 0-.8.4-.8.8.1.3.3.6.6.7z" fill="#003a70"/><path d="m25.4 12.9-1 1.3-3.7-2.6.9-1.4z" fill="#b5ddff"/><path d="m24.3 14.4-1.3 1.7-3.8-2.6 1.3-1.7z" fill="#b5ddff"/><path d="m22.8 16.3-.5.7h-.1c-.2-.1-.5-.1-.7 0l-.5.2c-.2.1-.3.1-.5 0l-.5-.2c-.2-.1-.5-.1-.7 0l-.5.2c-.2.1-.3.1-.5 0l-.5-.2c-.2-.1-.5-.1-.7 0l-.4.2h-.3l2.7-3.6z" fill="#b5ddff"/><path d="m19.5 12.6-.1.2-6.2-4-.8.5 1.1.8c.2.1.4.3.6.4.4.2.6.6.6 1v.1c-.1.4-.5.8-.9.9h-.2c-.2 0-.4-.1-.6-.2l-2.4-1.7-1.3.9.2.9c.1.4.4.8.8 1l5 3.5c.2-.1.5-.1.7 0l.3.1.2.1h.1v.3c-.2 0-.3 0-.5-.1h-.4c-.2-.1-.3-.1-.5 0l-.5.2c-.2.1-.5.1-.7 0l-.4-.2c-.2-.1-.3-.1-.5 0l-.4.2c-.2.1-.5.1-.7 0l-.5-.2c-.2-.1-.3-.1-.5 0l-.5.2c-.2.1-.5.1-.7 0l-.5-.2c-.2-.1-.3-.1-.5 0l-.4.2c-.2.1-.5.1-.7 0l-.4-.2c-.2-.1-.3-.1-.5 0l-.4.2c-.2.1-.5.1-.7 0l-.5-.2c-.2-.1-.3-.1-.5 0l-.5.2c-.2.1-.5.1-.7 0l-.4-.2c-.2-.1-.3-.1-.5 0l-.5.2c-.1 0-.2.1-.4.1-.1 0-.2 0-.3-.1l-.9-.3c-.1 0-.1-.1-.1-.2s.1-.1.2-.1l.9.3c.2.1.3.1.5 0l.5-.2c.2-.1.5-.1.7 0l.4.2h.1c-.9-1.3-1.4-2.9-1.4-4.5.2-2.1 1-4.2 2.2-5.9l.1-.1 1.3.9 1.3-1.8h-.1l1.1-1.5.4-.5.2.1-.3.5 2.3 1.7-1.2.2.1 1.3-2.3-1.6-1.3 1.8 2.8 2 .3 1.4 3.9-2.7zm-4.9 4.6.2-.1-4.8-3.5-.1-.1-2.5 3.5.4.1c.2.1.3.1.5 0l.4-.1c.2-.1.5-.1.7 0l.4.2c.2.1.3.1.5 0l.5-.2c.2-.1.5-.1.7 0l.5.2c.2.1.3.1.5 0l.4-.2c.2-.1.5-.1.7 0l.4.2c.3.1.5.1.6 0zm-.3-5.7c0-.3-.1-.6-.4-.7-.2-.1-.4-.2-.6-.4l-1.1-.9-1.5 1 2.3 1.6c.2.1.4.2.6.1.4-.1.6-.3.7-.7zm-5-5.4.8-.1-1.8-1.4-.8 1.1 1.9 1.4zm-2.1 10.9 2.5-3.6c-.2-.2-.4-.6-.5-.9l-.5-2.6-4-2.9c-1.2 1.7-1.9 3.7-2.1 5.7-.1 1.6.4 3.3 1.4 4.6h.1l.5-.2c.2-.1.5-.1.7 0l.5.2c.2.1.3.1.5 0l.4-.2c.1-.1.3-.2.5-.1z" fill="#003a70"/><path d="m19.3 12.9-.6.8c-.2-.2-.5-.4-.8-.4-.6 0-1.1.5-1.1 1.1 0 .4.3.8.6 1l-1.3 1.8-.3-.1c-.2-.1-.5-.1-.7 0l-5-3.5c-.6-.4-.7-1-.8-1l-.2-.9 1.3-.9 2.4 1.7c.2.1.4.2.6.2h.2c.4-.1.8-.5.9-.9v-.1c0-.4-.2-.8-.6-1-.2-.1-.4-.2-.6-.4l-1.1-.8.8-.5zm-2.4.2c0-.6-.5-1.1-1.1-1.1s-1.1.5-1.1 1.1.5 1.1 1.1 1.1c.6 0 1.1-.5 1.1-1.1z" fill="#b5ddff"/><path d="m18.5 13.9-.9 1.2c-.3-.1-.5-.5-.5-.8 0-.4.4-.8.8-.8.2.1.5.2.6.4z" fill="#66a6cc"/><path d="m15.8 12c.6 0 1.1.5 1.1 1.1s-.5 1.1-1.1 1.1-1.1-.5-1.1-1.1.5-1.1 1.1-1.1zm.8 1.1c0-.4-.4-.8-.8-.8s-.8.4-.8.8.4.8.8.8c.4 0 .8-.4.8-.8z" fill="#003a70"/><path d="m15.8 12.3c.4 0 .8.4.8.8s-.4.8-.8.8-.8-.4-.8-.8c0-.4.4-.8.8-.8z" fill="#66a6cc"/><path d="m14.9 17.1-.2.1c-.2.1-.3.1-.5 0l-.5-.2c-.2-.1-.5-.1-.7 0l-.4.2c-.2.1-.3.1-.5 0l-.5-.2c-.2-.1-.5-.1-.7 0l-.5.2c-.2.1-.3.1-.5 0l-.4-.2c-.2-.1-.5-.1-.7 0l-.4.2c-.2.1-.3.1-.5 0l-.4-.1 2.5-3.5.1.1zm-4.7-2.4c0-.1-.1-.2-.2-.2s-.3.1-.3.2.1.2.2.2.3 0 .3-.2zm-.7.9c0-.1-.1-.2-.2-.2s-.2.1-.2.2.1.2.2.2.2 0 .2-.2zm-.5.8c0-.1-.1-.2-.2-.2s-.3.1-.3.2.1.2.2.2.3 0 .3-.2z" fill="#003a70"/><g fill="#b5ddff"><path d="m13.8 10.8c.3.1.5.4.4.7v.1c-.1.3-.3.6-.6.7-.2 0-.4 0-.6-.1l-2.3-1.7 1.4-.9 1.1.9z"/><path d="m10.1 5.9-.8.2.1 1-1.9-1.4.8-1.1z"/><circle cx="9.9" cy="14.7" r=".2"/><path d="m9.7 13.4-2.5 3.6c-.2 0-.4 0-.6.1l-.4.2c-.2.1-.3.1-.5 0l-.5-.2c-.2-.1-.5-.1-.7 0l-.5.2h-.1c-1-1.3-1.5-2.9-1.5-4.5.2-2 .9-4 2.1-5.7l4 2.9.5 2.6c.2-.1.3.4.7.8zm-2.9-2.4c0-.6-.4-1-1-1-.5 0-1 .4-1 .9v.1c0 .6.4 1 1 1 .5 0 1-.4 1-.9z"/><path d="m9.3 15.4c.1 0 .2.1.2.2s-.1.2-.2.2-.2-.1-.2-.2c0-.1.1-.2.2-.2z"/><path d="m8.8 16.2c.1 0 .2.1.2.2s-.1.2-.2.2-.2-.1-.2-.2c0-.1.1-.2.2-.2z"/></g><path d="m5.8 10c.6 0 1 .4 1 1s-.4 1-1 1c-.5 0-1-.4-1-.9v-.1c.1-.5.5-.9 1-1zm.8 1c0-.4-.3-.7-.7-.7s-.7.3-.7.7.3.7.7.7c.4 0 .7-.3.7-.7z" fill="#003a70"/><path d="m5.8 10.3c.4 0 .7.3.7.7s-.3.7-.7.7-.7-.3-.7-.7.3-.7.7-.7z" fill="#66a6cc"/><circle cx=".2" cy="17.1" fill="#252258" r=".2"/><circle cx="8.3" cy="21.2" fill="#003a70" r=".3"/><circle cx="17.9" cy="22.4" fill="#003a70" r=".2"/><circle cx="2.3" cy="22.1" fill="#003a70" r=".3"/><path d="m5.8 20.5c-.3 0-.5-.2-.5-.5s.2-.5.5-.5.5.2.5.5-.2.5-.5.5zm0-.7c-.1 0-.2.1-.2.2s.1.2.2.2.2-.1.2-.2z" fill="#66a6cc"/><path d="m24.2 20.2h-.9c-.1 0-.2-.1-.2-.2s.1-.2.2-.2h.9c.1 0 .2.1.2.2-.1.1-.1.2-.2.2z" fill="#003a70"/><path d="m21.8 20.2h-5.7c-.1 0-.2-.1-.2-.2s.1-.2.2-.2h5.7c.1 0 .2.1.2.2s-.1.2-.2.2z" fill="#003a70"/><path d="m15.3 20.2h-3.6c-.1 0-.2-.1-.2-.2s.1-.2.2-.2h3.7c.1 0 .2.1.2.2-.1.1-.2.2-.3.2z" fill="#003a70"/><path d="m10.2 20.2h-.9c-.1 0-.2-.1-.2-.2s.1-.2.2-.2h.8c.1 0 .2.1.2.2s0 .2-.1.2z" fill="#003a70"/><path d="m17.2 22.6h-4.4c-.1 0-.2-.1-.2-.2s.1-.2.2-.2h4.4c.1 0 .2.1.2.2s-.1.2-.2.2z" fill="#003a70"/><circle cx="20.7" cy="3.9" fill="#66a6cc" r="3.9"/><path d="m21.9 6.9v.8l.7.3.6-.3v-.8l-.6-.3z" fill="#003a70"/><path d="m24.6 7.1h.3v.9h-.3z" fill="#003a70"/><path d="m24.3 7.4h.9v.3h-.9z" fill="#003a70"/><circle cx="26.5" cy="7.7" fill="#003a70" r=".4"/><circle cx="26.1" cy="10.2" fill="#003a70" r=".6"/><path d="m23.8 10v.7l.5-.4z" fill="#66a6cc"/><path d="m25.2 2.1.4-.4.4.4-.4.4z" fill="#66a6cc"/></svg>